<svg width="873" height="1770" viewBox="0 0 873 1770" fill="none" xmlns="http://www.w3.org/2000/svg">
<path d="M866.809 495.105H869.904C871.614 495.105 873 496.49 873 498.199V683.864C873 685.573 871.614 686.958 869.904 686.958H866.809V495.105Z" fill="#213744"/>
<path d="M6.19141 728.217L3.09565 728.217C1.38592 728.217 -9.41506e-05 726.831 -9.40011e-05 725.122L-8.38972e-05 609.598C-8.37478e-05 607.889 1.38593 606.503 3.09566 606.503L6.19142 606.503L6.19141 728.217Z" fill="#213744"/>
<path d="M6.19141 573.497L3.09565 573.497C1.38592 573.497 -9.41506e-05 572.111 -9.40011e-05 570.402L-8.38972e-05 454.878C-8.37478e-05 453.169 1.38593 451.783 3.09566 451.783L6.19142 451.783L6.19141 573.497Z" fill="#213744"/>
<path d="M6.19141 398.147L3.09566 398.147C1.38592 398.147 -8.82459e-05 396.762 -8.80964e-05 395.053L-8.35858e-05 343.479C-8.34363e-05 341.77 1.38593 340.385 3.09566 340.385L6.19141 340.385L6.19141 398.147Z" fill="#213744"/>
<path d="M6.19141 187.727C6.19141 137.811 6.19141 112.853 12.7571 92.6545C26.0269 51.8322 58.046 19.8269 98.886 6.56288C119.093 0 144.062 0 194 0H679C728.938 0 753.907 0 774.114 6.56288C814.954 19.8269 846.973 51.8322 860.243 92.6545C866.808 112.853 866.808 137.811 866.808 187.727V1582.27C866.808 1632.19 866.808 1657.15 860.243 1677.35C846.973 1718.17 814.954 1750.17 774.114 1763.44C753.907 1770 728.938 1770 679 1770H194C144.062 1770 119.093 1770 98.886 1763.44C58.046 1750.17 26.0269 1718.17 12.7571 1677.35C6.19141 1657.15 6.19141 1632.19 6.19141 1582.27V187.727Z" fill="#213744"/>
<path fill-rule="evenodd" clip-rule="evenodd" d="M679.825 4.12593H193.174C143.844 4.12593 119.668 4.15138 100.161 10.4869C60.5778 23.3427 29.5438 54.3633 16.6824 93.9296C10.3442 113.428 10.3187 137.593 10.3187 186.902V1583.1C10.3187 1632.41 10.3442 1656.57 16.6824 1676.07C29.5438 1715.64 60.5778 1746.66 100.161 1759.51C119.668 1765.85 143.844 1765.87 193.174 1765.87H679.825C729.155 1765.87 753.331 1765.85 772.838 1759.51C812.421 1746.66 843.455 1715.64 856.317 1676.07C862.655 1656.57 862.68 1632.41 862.68 1583.1V186.902C862.68 137.593 862.655 113.428 856.317 93.9296C843.455 54.3633 812.421 23.3427 772.838 10.4869C753.331 4.15138 729.155 4.12593 679.825 4.12593ZM14.7196 93.2921C8.25488 113.18 8.25488 137.754 8.25488 186.902V1583.1C8.25488 1632.25 8.25488 1656.82 14.7196 1676.71C27.7852 1716.9 59.3117 1748.42 99.5234 1761.48C119.42 1767.94 144.005 1767.94 193.174 1767.94H679.825C728.995 1767.94 753.579 1767.94 773.476 1761.48C813.687 1748.42 845.214 1716.9 858.279 1676.71C864.744 1656.82 864.744 1632.25 864.744 1583.1V186.902C864.744 137.754 864.744 113.18 858.279 93.2921C845.214 53.0977 813.687 21.5848 773.476 8.5249C753.579 2.06299 728.995 2.06299 679.825 2.06299H193.174C144.005 2.06299 119.42 2.06299 99.5234 8.5249C59.3117 21.5848 27.7852 53.0977 14.7196 93.2921Z" fill="#8EADC1"/>
<path d="M16.5107 183.601C16.5107 137.525 16.5107 114.486 22.5714 95.8417C34.8204 58.1595 64.3765 28.6162 102.075 16.3725C120.728 10.3145 143.776 10.3145 189.872 10.3145H683.128C729.224 10.3145 752.272 10.3145 770.925 16.3725C808.624 28.6162 838.18 58.1595 850.429 95.8417C856.489 114.486 856.489 137.525 856.489 183.601V1586.4C856.489 1632.47 856.489 1655.51 850.429 1674.16C838.18 1711.84 808.624 1741.38 770.925 1753.63C752.272 1759.69 729.224 1759.69 683.128 1759.69H189.872C143.776 1759.69 120.728 1759.69 102.075 1753.63C64.3765 1741.38 34.8204 1711.84 22.5714 1674.16C16.5107 1655.51 16.5107 1632.47 16.5107 1586.4V183.601Z" fill="#121515"/>
<path d="M683.128 0H695.511V10.3147H683.128V0Z" fill="#36454C"/>
<path d="M856.489 177.413H866.808V189.79H856.489V177.413Z" fill="#36454C"/>
<path d="M6.19141 177.413H16.5106V189.79H6.19141V177.413Z" fill="#36454C"/>
<path d="M6.19141 1580.21H16.5106V1592.59H6.19141V1580.21Z" fill="#36454C"/>
<path d="M856.489 1580.21H866.808V1592.59H856.489V1580.21Z" fill="#36454C"/>
<path d="M177.489 1759.69H189.872V1770H177.489V1759.69Z" fill="#36454C"/>
<path fill-rule="evenodd" clip-rule="evenodd" d="M372 13H499V17C499 21.4183 495.418 25 491 25H380C375.582 25 372 21.4183 372 17V13Z" fill="#262C2D"/>
<path d="M280.277 39.1958H187.994C145.528 39.1958 124.295 39.1958 107.406 45.727C81.9318 55.5778 61.7934 75.7075 51.9383 101.17C45.4043 118.052 45.4043 139.276 45.4043 181.724V1588.28C45.4043 1630.72 45.4043 1651.95 51.9383 1668.83C61.7934 1694.29 81.9318 1714.42 107.406 1724.27C124.295 1730.8 145.528 1730.8 187.994 1730.8H685.006C727.472 1730.8 748.705 1730.8 765.594 1724.27C791.068 1714.42 811.207 1694.29 821.062 1668.83C827.596 1651.95 827.596 1630.72 827.596 1588.28V181.724C827.596 139.276 827.596 118.052 821.062 101.17C811.207 75.7075 791.068 55.5778 765.594 45.727C748.705 39.1958 727.472 39.1958 685.006 39.1958H596.723C545.587 39.1958 382.516 39.1958 280.277 39.1958Z" fill="#FF0000"/>
<path d="M524.5 60H348.5C328.894 60 313 75.8939 313 95.5C313 115.106 328.894 131 348.5 131H435.5H524.5C544.106 131 560 115.106 560 95.5C560 75.8939 544.106 60 524.5 60Z" fill="#121515"/>
<path fill-rule="evenodd" clip-rule="evenodd" d="M525.447 109.881C533.426 109.881 539.894 103.416 539.894 95.4406C539.894 87.4653 533.426 81 525.447 81C517.468 81 511 87.4653 511 95.4406C511 103.416 517.468 109.881 525.447 109.881Z" fill="#262C2D"/>
<path fill-rule="evenodd" clip-rule="evenodd" d="M525.447 104.466C530.434 104.466 534.476 100.425 534.476 95.4404C534.476 90.4558 530.434 86.415 525.447 86.415C520.46 86.415 516.418 90.4558 516.418 95.4404C516.418 100.425 520.46 104.466 525.447 104.466Z" fill="#121515"/>
<path opacity="0.4" fill-rule="evenodd" clip-rule="evenodd" d="M525.446 93.6355C526.444 93.6355 527.252 92.8274 527.252 91.8305C527.252 90.8335 526.444 90.0254 525.446 90.0254C524.449 90.0254 523.641 90.8335 523.641 91.8305C523.641 92.8274 524.449 93.6355 525.446 93.6355Z" fill="#636F73"/>
</svg>
