<svg width="783" height="1692" viewBox="0 0 783 1692" fill="none" xmlns="http://www.w3.org/2000/svg">
<path d="M235.277 0.195801H142.994C100.528 0.195801 79.295 0.195801 62.4056 6.72699C36.9318 16.5778 16.7934 36.7075 6.93831 62.1703C0.404297 79.0524 0.404297 100.276 0.404297 142.724V1549.28C0.404297 1591.72 0.404297 1612.95 6.93831 1629.83C16.7934 1655.29 36.9318 1675.42 62.4056 1685.27C79.295 1691.8 100.528 1691.8 142.994 1691.8H640.006C682.472 1691.8 703.705 1691.8 720.594 1685.27C746.068 1675.42 766.207 1655.29 776.062 1629.83C782.596 1612.95 782.596 1591.72 782.596 1549.28V142.724C782.596 100.276 782.596 79.0524 776.062 62.1703C766.207 36.7075 746.068 16.5778 720.594 6.72699C703.705 0.195801 682.472 0.195801 640.006 0.195801H551.723C500.587 0.195801 337.516 0.195801 235.277 0.195801Z" fill="#FF0000"/>
</svg>
