<svg width="247" height="71" viewBox="0 0 247 71" fill="none" xmlns="http://www.w3.org/2000/svg">
<path d="M211.5 0H35.5C15.8939 0 0 15.8939 0 35.5C0 55.1061 15.8939 71 35.5 71H122.5H211.5C231.106 71 247 55.1061 247 35.5C247 15.8939 231.106 0 211.5 0Z" fill="#121515"/>
<path fill-rule="evenodd" clip-rule="evenodd" d="M212.447 49.8811C220.426 49.8811 226.894 43.4159 226.894 35.4406C226.894 27.4653 220.426 21 212.447 21C204.468 21 198 27.4653 198 35.4406C198 43.4159 204.468 49.8811 212.447 49.8811Z" fill="#262C2D"/>
<path fill-rule="evenodd" clip-rule="evenodd" d="M212.447 44.4657C217.434 44.4657 221.476 40.4249 221.476 35.4404C221.476 30.4558 217.434 26.415 212.447 26.415C207.46 26.415 203.418 30.4558 203.418 35.4404C203.418 40.4249 207.46 44.4657 212.447 44.4657Z" fill="#121515"/>
<path opacity="0.4" fill-rule="evenodd" clip-rule="evenodd" d="M212.446 33.6355C213.444 33.6355 214.252 32.8274 214.252 31.8305C214.252 30.8335 213.444 30.0254 212.446 30.0254C211.449 30.0254 210.641 30.8335 210.641 31.8305C210.641 32.8274 211.449 33.6355 212.446 33.6355Z" fill="#636F73"/>
</svg>
